Coordinates
version=1
nRows=21
nColumns=33
inDegrees=yes

Units are S.I. units (second, meters, Newtons, ...)
Angles are in degrees.

endheader
time	ground_thorax_rot_x	ground_thorax_rot_y	ground_thorax_rot_z	ground_thorax_tx	ground_thorax_ty	ground_thorax_tz	clav_prot_r	clav_elev_r	scapula_abduction_r	scapula_elevation_r	scapula_upward_rot_r	scapula_winging_r	shoulder_elv_r	plane_of_elev_r	axial_rot_r	elbow_flexion_r	pro_sup_r	wrist_flex_r	wrist_dev_r	clav_prot_l	clav_elev_l	scapula_abduction_l	scapula_elevation_l	scapula_upward_rot_l	scapula_winging_l	shoulder_elv_l	plane_of_elev_l	axial_rot_l	elbow_flexion_l	pro_sup_l	wrist_flex_l	wrist_dev_l	
3.2600	0.713098	1.954091	12.486687	-0.115290	1.031594	0.017155	9.667599	-9.868830	16.591899	-2.469118	-0.702558	-3.427840	-57.001751	-74.770033	81.768325	-52.101698	-128.076161	46.206724	-20.431712	8.424209	-0.359516	-9.672872	-22.240671	-36.539419	-2.800738	54.401598	-39.157913	-1.183957	53.145441	30.038229	-2.654800	-25.000000	
3.2700	0.669428	1.964519	12.446147	-0.115464	1.031768	0.017186	9.659444	-9.822672	16.588652	-2.438980	-0.675498	-3.444948	-57.164162	-74.720119	81.898511	-52.630708	-128.091318	46.370630	-20.461115	8.483273	-0.277623	-9.757597	-22.289295	-36.475894	-2.766963	54.362785	-39.075520	-1.295837	53.462228	29.992418	-2.698755	-25.000000	
3.2800	0.638741	1.973632	12.457455	-0.115621	1.032006	0.017200	9.647919	-9.783234	16.573238	-2.408822	-0.662729	-3.453551	-57.304937	-74.673297	81.999789	-53.075452	-128.106908	46.525528	-20.500297	8.533306	-0.211911	-9.830221	-22.327872	-36.423823	-2.737332	54.316179	-38.996612	-1.405707	53.736607	29.953099	-2.735007	-25.000000	
3.2900	0.600258	1.985329	12.463404	-0.115783	1.032059	0.017221	9.634731	-9.728444	16.553289	-2.363590	-0.652558	-3.466564	-57.472747	-74.630867	82.110995	-53.627530	-128.129553	46.728847	-20.562566	8.601934	-0.122649	-9.930322	-22.380678	-36.354841	-2.696983	54.268606	-38.907919	-1.544716	54.073980	29.904818	-2.778249	-25.000000	
3.3000	0.558873	1.996641	12.487766	-0.115943	1.032044	0.017243	9.620375	-9.677267	16.529942	-2.320197	-0.645708	-3.476733	-57.641991	-74.586845	82.216294	-54.198602	-128.158838	46.956071	-20.649055	8.676641	-0.036129	-10.040424	-22.426905	-36.278751	-2.650713	54.226498	-38.812189	-1.693559	54.412868	29.855125	-2.817870	-25.000000	
3.3100	0.517757	2.006870	12.525647	-0.116100	1.031966	0.017260	9.604756	-9.634488	16.504889	-2.284539	-0.638457	-3.483092	-57.803862	-74.541107	82.310845	-54.781662	-128.198287	47.204792	-20.765492	8.755681	0.042623	-10.158028	-22.461564	-36.195458	-2.598661	54.191038	-38.703838	-1.850310	54.753180	29.802741	-2.850943	-25.000000	
3.3200	0.473608	2.015172	12.577266	-0.116257	1.031872	0.017274	9.589234	-9.610695	16.482174	-2.267493	-0.627954	-3.483214	-57.950558	-74.487942	82.396357	-55.350570	-128.250078	47.463176	-20.912762	8.834486	0.101473	-10.276672	-22.473415	-36.106339	-2.541956	54.171804	-38.584114	-2.001753	55.064793	29.748597	-2.872042	-25.000000	
3.3300	0.432484	2.022589	12.636519	-0.116413	1.031776	0.017280	9.573310	-9.609504	16.461153	-2.272459	-0.613875	-3.475348	-58.071907	-74.430428	82.466487	-55.890686	-128.319631	47.725338	-21.096691	8.910393	0.136511	-10.392456	-22.459820	-36.013617	-2.482015	54.166761	-38.448035	-2.145996	55.347900	29.689563	-2.878349	-25.000000	
3.3400	0.388522	2.029103	12.697115	-0.116570	1.031672	0.017281	9.556965	-9.630554	16.442226	-2.299404	-0.595635	-3.460128	-58.173219	-74.367318	82.530788	-56.414550	-128.409683	47.989738	-21.316161	8.984729	0.150173	-10.507341	-22.422742	-35.916503	-2.418386	54.180703	-38.299102	-2.279464	55.599278	29.622983	-2.871030	-25.000000	
3.3500	0.347139	2.034541	12.755690	-0.116726	1.031543	0.017271	9.538384	-9.670015	16.420828	-2.343616	-0.576098	-3.437073	-58.251457	-74.305679	82.585960	-56.924629	-128.524219	48.256258	-21.573493	9.058326	0.147620	-10.622908	-22.369046	-35.818583	-2.351793	54.207482	-38.136209	-2.408758	55.831419	29.546658	-2.852989	-25.000000	
3.3600	0.305008	2.036638	12.821401	-0.116879	1.031410	0.017248	9.517308	-9.726311	16.395785	-2.403035	-0.556901	-3.406332	-58.306521	-74.246495	82.636466	-57.402881	-128.657652	48.513099	-21.853320	9.128497	0.128789	-10.735502	-22.301810	-35.726125	-2.284967	54.249158	-37.968368	-2.529552	56.028221	29.467520	-2.829930	-25.000000	
3.3700	0.264784	2.035865	12.883114	-0.117029	1.031255	0.017219	9.493781	-9.797978	16.365599	-2.475017	-0.541112	-3.367478	-58.336156	-74.194454	82.683178	-57.858368	-128.812280	48.763492	-22.156618	9.197217	0.096328	-10.848973	-22.225215	-35.642432	-2.217291	54.306705	-37.793697	-2.650101	56.198673	29.389119	-2.807812	-25.000000	
3.3800	0.223903	2.033159	12.942793	-0.117173	1.031088	0.017184	9.465900	-9.886303	16.322685	-2.556803	-0.538301	-3.316571	-58.337953	-74.151647	82.730004	-58.287745	-128.993100	49.012046	-22.489847	9.265036	0.049632	-10.966111	-22.142882	-35.576415	-2.149033	54.387289	-37.618256	-2.774922	56.334128	29.318132	-2.794720	-25.000000	
3.3900	0.183411	2.029753	12.996255	-0.117308	1.030897	0.017147	9.431229	-9.989758	16.260413	-2.644834	-0.553694	-3.251146	-58.310615	-74.123532	82.777853	-58.690408	-129.201977	49.263844	-22.847856	9.332983	-0.007553	-11.089453	-22.061525	-35.534308	-2.081028	54.491879	-37.444671	-2.907799	56.442316	29.258664	-2.798157	-25.000000	
3.4000	0.140999	2.032045	13.053139	-0.117426	1.030700	0.017110	9.381440	-10.116872	16.153587	-2.736872	-0.611581	-3.156726	-58.245536	-74.117929	82.829824	-59.053172	-129.459691	49.540369	-23.263885	9.402671	-0.077980	-11.225653	-21.987286	-35.534772	-2.013508	54.633925	-37.278169	-3.056102	56.517035	29.216585	-2.832919	-25.000000	
3.4100	0.093163	2.041227	13.105063	-0.117522	1.030488	0.017074	9.310922	-10.268231	15.992345	-2.833264	-0.712605	-3.029117	-58.143369	-74.142036	82.894255	-59.383109	-129.771536	49.847949	-23.704110	9.476413	-0.156322	-11.379345	-21.928319	-35.583874	-1.946454	54.817992	-37.118599	-3.217442	56.569559	29.194960	-2.909606	-25.000000	
3.4200	0.038609	2.059728	13.154289	-0.117586	1.030273	0.017032	9.216273	-10.442156	15.769886	-2.931703	-0.858924	-2.866276	-58.003854	-74.198044	82.972612	-59.674026	-130.140187	50.185620	-24.146515	9.553459	-0.240072	-11.549631	-21.889045	-35.685590	-1.881327	55.043710	-36.968101	-3.386707	56.602384	29.194575	-3.032433	-25.000000	
3.4300	-0.033211	2.098519	13.192141	-0.117610	1.030071	0.016986	9.070715	-10.656549	15.434189	-3.042240	-1.066597	-2.640205	-57.798540	-74.306030	83.091333	-59.942206	-130.620980	50.578141	-24.505533	9.638396	-0.330961	-11.752039	-21.884083	-35.874759	-1.817810	55.347556	-36.810006	-3.561978	56.631863	29.231067	-3.247740	-25.000000	
3.4400	-0.116284	2.156295	13.220119	-0.117595	1.029885	0.016931	8.886792	-10.895894	15.012238	-3.156242	-1.322077	-2.368160	-57.542619	-74.452530	83.239746	-60.189216	-131.187255	51.002783	-24.780973	9.727617	-0.425076	-11.975645	-21.907807	-36.131127	-1.757230	55.707847	-36.648242	-3.736668	56.660164	29.296076	-3.533837	-25.000000	
3.4500	-0.207044	2.225494	13.223692	-0.117557	1.029696	0.016881	8.680121	-11.139920	14.544379	-3.267936	-1.594310	-2.075800	-57.257230	-74.621774	83.416284	-60.453538	-131.807624	51.427803	-24.932001	9.821733	-0.513417	-12.215070	-21.955305	-36.425926	-1.697587	56.100384	-36.482668	-3.906202	56.696391	29.380394	-3.865360	-25.000000	
3.4600	-0.286745	2.290953	13.209642	-0.117504	1.029490	0.016827	8.494390	-11.345034	14.124623	-3.356134	-1.837148	-1.819253	-56.994723	-74.775068	83.582585	-60.728447	-132.386810	51.785447	-25.000000	9.910509	-0.584408	-12.437654	-22.007415	-36.693820	-1.642374	56.452592	-36.334264	-4.054742	56.740184	29.454116	-4.164901	-25.000000	
